<?xml version="1.0" standalone="no"?>
<!DOCTYPE svg PUBLIC "-//W3C//DTD SVG 20010904//EN"
 "http://www.w3.org/TR/2001/REC-SVG-20010904/DTD/svg10.dtd">
<svg version="1.0" xmlns="http://www.w3.org/2000/svg"
 width="600.000000pt" height="600.000000pt" viewBox="0 0 600.000000 600.000000"
 preserveAspectRatio="xMidYMid meet">
<metadata>
Created by potrace 1.11, written by Peter Selinger 2001-2013
</metadata>
<g transform="translate(0.000000,600.000000) scale(0.100000,-0.100000)"
fill="#000000" stroke="none">
<path d="M20 3000 l0 -2980 2980 0 2980 0 0 2980 0 2980 -2980 0 -2980 0 0
-2980z m4201 -15 c426 -479 780 -878 788 -888 13 -16 -98 -17 -2000 -17
l-2013 0 100 102 c455 470 1081 1103 1090 1103 6 0 145 -158 310 -352 164
-194 300 -351 301 -349 2 1 -44 102 -102 224 -58 122 -105 226 -105 231 0 6
185 200 412 431 393 402 412 420 428 403 10 -10 365 -410 791 -888z"/>
</g>
</svg>
